<?xml version="1.0" encoding="utf-8"?>
<!-- Generator: Adobe Illustrator 24.2.3, SVG Export Plug-In . SVG Version: 6.00 Build 0)  -->
<svg version="1.1" id="Layer_1" xmlns="http://www.w3.org/2000/svg" xmlns:xlink="http://www.w3.org/1999/xlink" x="0px" y="0px"
	 viewBox="0 0 120.7 117.8" style="enable-background:new 0 0 120.7 117.8;" xml:space="preserve">
<style type="text/css">
	.st0{fill:#ffffff;}
</style>
<path class="st0" d="M38,107.9c45.5,0,70.5-37.7,70.5-70.5c0-1.1,0-2.1-0.1-3.2c4.9-3.5,9-7.8,12.3-12.8c-4.5,2-9.3,3.3-14.2,3.9
	c5.2-3.1,9.1-8,10.9-13.7c-4.9,2.9-10.2,4.9-15.7,6c-9.4-10-25.1-10.4-35-1.1c-6.4,6-9.2,15.1-7.2,23.7C39.5,39.3,21,29.8,8.4,14.4
	c-6.5,11.3-3.2,25.8,7.7,33c-4-0.1-7.8-1.2-11.2-3.1c0,0.1,0,0.2,0,0.3c0,11.8,8.3,21.9,19.9,24.3c-3.7,1-7.5,1.1-11.2,0.4
	c3.3,10.1,12.6,17,23.1,17.2C27.9,93.4,17,97.1,5.9,97.1c-2,0-4-0.1-5.9-0.4C11.3,104.1,24.5,107.9,38,107.9"/>
</svg>
